<?xml version="1.0" encoding="UTF-8" standalone="no"?>
<svg
   xmlns:dc="http://purl.org/dc/elements/1.1/"
   xmlns:cc="http://creativecommons.org/ns#"
   xmlns:rdf="http://www.w3.org/1999/02/22-rdf-syntax-ns#"
   xmlns:svg="http://www.w3.org/2000/svg"
   xmlns="http://www.w3.org/2000/svg"
   viewBox="0 0 1440 320"
   version="1.1">
  <path
     fill="#1dd1a1"
     fill-opacity="1"
     d="m 1439.9742,258.29323 -34.2991,5.34741 
     c -34.2992,5.75098 -102.6978,15.84042 -171.6961,26.9388 -68.2982,11.09838 -136.9969,21.18782 -204.995,26.9388 -68.99876,5.3474 -137.99711,5.3474 -205.99527,-32.2862 
     C 754.29012,247.19485 685.99186,172.533 616.99351,156.08722 548.59499,140.2468 479.99664,182.62244 410.99794,172.23032 342.89952,161.43462 274.00143,96.862219 206.00291,64.576017 137.10447,32.289812 69.006049,32.289812 34.006916,32.289812 
     H -5 
     V -1 
     H 34.306938 
     c 34.299209,0 102.697622,0 171.695972,0 68.29826,0 136.99687,0 204.99503,0 68.9987,0 137.99706,0 205.99557,0 68.69826,0 136.99652,0 205.99522,0 68.39816,0 136.99651,0 205.99527,0 68.0981,0 136.9964,0 204.995,0 68.8984,0 136.9968,0 171.9961,0 
     h 330 
     z"
     id="path72"
     style="stroke-width:1.00444" />
</svg>
