<?xml version="1.0" encoding="UTF-8" standalone="no"?>
<svg
   xmlns:dc="http://purl.org/dc/elements/1.1/"
   xmlns:cc="http://creativecommons.org/ns#"
   xmlns:rdf="http://www.w3.org/1999/02/22-rdf-syntax-ns#"
   xmlns:svg="http://www.w3.org/2000/svg"
   xmlns="http://www.w3.org/2000/svg"
   xmlns:sodipodi="http://sodipodi.sourceforge.net/DTD/sodipodi-0.dtd"
   xmlns:inkscape="http://www.inkscape.org/namespaces/inkscape"
   viewBox="0 0 1440 320"
   version="1.1">
  
  <path
     d="
     m 1440.000,249.33334 -34.3391,5.85208 
     c -34.339,6.29375 -102.8171,17.33542 -171.8958,29.48125 -68.378,12.14583 -137.1562,23.1875 -205.2338,29.48125 
     C 960.80048,320 891.72179,320 823.64424,278.81459 754.86591,237.18751 686.48802,155.47917 617.40934,137.48125 548.93134,120.14583 480.25313,166.52083 411.17444,155.14792 342.99678,143.33334 274.01822,72.66667 205.94068,37.33333 136.96211,2 68.784456,2 33.744541,2 
     H -2.2942304 
     V 321.0 
     H 35.044881 
     c 34.339111,1 102.817119,1 171.895799,1 68.37787,1 137.15621,1 205.23376,1 69.07868,1 138.15736,1 206.2349,1 68.77833,1 137.15622,0 206.2349,0 68.47801,0 137.15623,1 206.23486,1 68.1776,1 137.1562,1 205.2338,1 68.9787,1 137.1563,1 172.1963,1 
     h 700 
     z"
     fill="#1dd1a1"/>
</svg>
